<svg xmlns="http://www.w3.org/2000/svg" fill="none" viewBox="0 0 32 32" height="32" width="32">
<g clip-path="url(#clip0_528_332)">
<path fill="#E535AB" d="M18.784 3.66256L25.4841 7.457C25.6776 7.25625 25.8995 7.08395 26.1432 6.94544C27.5327 6.16189 29.3051 6.62711 30.1122 7.99011C30.9111 9.35311 30.4368 11.0914 29.0472 11.8831C28.8053 12.0197 28.5447 12.1215 28.2733 12.1853V19.777C28.5417 19.8409 28.7995 19.942 29.0389 20.0772C30.4368 20.8689 30.9111 22.6073 30.104 23.9703C29.3051 25.3332 27.5244 25.7984 26.1348 25.015C25.8656 24.8635 25.6231 24.6704 25.4166 24.4431L18.7573 28.2142C18.8548 28.5039 18.9043 28.807 18.904 29.112C18.904 30.679 17.606 31.9604 16 31.9604C14.394 31.9604 13.096 30.6871 13.096 29.112C13.096 28.832 13.1371 28.5616 13.2135 28.3061L6.51521 24.5128C6.3239 24.7095 6.10504 24.8786 5.8652 25.015C4.46731 25.7984 2.69492 25.3332 1.89606 23.9703C1.09731 22.6073 1.57162 20.8689 2.96113 20.0772C3.2005 19.942 3.45827 19.8409 3.72668 19.7769V12.1853C3.45531 12.1215 3.1947 12.0197 2.95286 11.8831C1.56324 11.0997 1.08893 9.35311 1.88779 7.99011C2.68665 6.62711 4.4672 6.16189 5.85682 6.94544C6.09914 7.08321 6.32003 7.2544 6.51272 7.45378L13.2148 3.65833C13.1358 3.39532 13.0958 3.12252 13.096 2.84833C13.096 1.27333 14.394 0 16 0C17.606 0 18.904 1.27322 18.904 2.84833C18.904 3.13144 18.8621 3.40467 18.784 3.66256ZM18.086 4.83167L24.8021 8.635C24.6951 9.00167 24.6645 9.3857 24.7119 9.76423C24.7593 10.1428 24.8839 10.5081 25.0781 10.8384C25.487 11.536 26.1529 11.9984 26.8921 12.1787V19.7798C26.8544 19.7888 26.8169 19.7987 26.7796 19.8091L18.0079 4.90778C18.0344 4.88289 18.0605 4.85756 18.086 4.83178V4.83167ZM13.9939 4.90944L5.22233 19.8106C5.18441 19.7998 5.14626 19.7898 5.10792 19.7806V12.1787C5.84708 11.9984 6.51306 11.536 6.92189 10.8384C7.11655 10.5074 7.24122 10.1414 7.28846 9.76206C7.3357 9.38276 7.30453 8.99801 7.19682 8.63078L13.911 4.82856C13.9381 4.856 13.9657 4.883 13.9939 4.90933V4.90944ZM16.8114 5.58444L25.581 20.4822C25.3801 20.6702 25.2079 20.8857 25.0697 21.1219C24.9319 21.3567 24.8289 21.6095 24.7637 21.8728H7.23658C7.1713 21.6095 7.06817 21.3567 6.93027 21.1219C6.79162 20.8873 6.61976 20.6732 6.41983 20.4859L15.1911 5.58511C15.454 5.65938 15.7264 5.69693 16 5.69667C16.2817 5.69667 16.554 5.65756 16.8114 5.58444ZM18.1476 27.1931L24.8201 23.4144C24.8001 23.3528 24.7822 23.2904 24.7665 23.2276H7.23285C7.22356 23.2646 7.21347 23.3012 7.20271 23.3378L13.9078 27.135C14.1786 26.8588 14.5035 26.6393 14.8631 26.4895C15.2227 26.3398 15.6094 26.263 16 26.2637C16.4043 26.263 16.8042 26.3453 17.1741 26.5054C17.544 26.6655 17.8756 26.8997 18.1476 27.1931V27.1931Z" clip-rule="evenodd" fill-rule="evenodd"></path>
</g>
<defs>
<clipPath id="clip0_528_332">
<rect transform="translate(1.5)" fill="white" height="32" width="29"></rect>
</clipPath>
</defs>
</svg>
