<svg xmlns="http://www.w3.org/2000/svg" fill="none" viewBox="0 0 32 32" height="32" width="32">
<g clip-path="url(#clip0_528_326)">
<path fill="url(#paint0_linear_528_326)" d="M16 6.5C11.8667 6.5 9.28329 8.60567 8.25 12.8169C9.8 10.7112 11.6083 9.9216 13.675 10.4481C14.8541 10.7484 15.6969 11.62 16.6298 12.5847C18.1495 14.1564 19.9083 15.9753 23.75 15.9753C27.8833 15.9753 30.4667 13.8697 31.5 9.65844C29.95 11.7641 28.1417 12.5537 26.075 12.0273C24.8959 11.727 24.0531 10.8553 23.1202 9.89064C21.6005 8.31894 19.8417 6.5 16 6.5ZM8.25 15.9753C4.11671 15.9753 1.53329 18.081 0.5 22.2922C2.05 20.1865 3.85829 19.3969 5.925 19.9234C7.10409 20.2237 7.9469 21.0953 8.87981 22.06C10.3995 23.6317 12.1583 25.4506 16 25.4506C20.1333 25.4506 22.7167 23.345 23.75 19.1338C22.2 21.2394 20.3917 22.029 18.325 21.5026C17.1459 21.2023 16.3031 20.3306 15.3702 19.366C13.8505 17.7943 12.0917 15.9753 8.25 15.9753Z"></path>
</g>
<defs>
<linearGradient gradientUnits="userSpaceOnUse" y2="27.8556" x2="26.6596" y1="12.5642" x1="-0.36118" id="paint0_linear_528_326">
<stop stop-color="#2298BD"></stop>
<stop stop-color="#0ED7B5" offset="1"></stop>
</linearGradient>
<clipPath id="clip0_528_326">
<rect transform="translate(0.5 6.5)" fill="white" height="19" width="31"></rect>
</clipPath>
</defs>
</svg>
